<svg width="24" height="22" viewBox="0 0 24 22" fill="none" xmlns="http://www.w3.org/2000/svg">
<path d="M10.2676 20C10.4431 20.304 10.6956 20.5564 10.9996 20.732C11.3037 20.9075 11.6485 20.9999 11.9996 20.9999C12.3506 20.9999 12.6955 20.9075 12.9995 20.732C13.3036 20.5564 13.556 20.304 13.7316 20" stroke="#073830" stroke-width="1.5" stroke-linecap="square"/>
<path d="M2.54688 16.0001H21.4544C20.1244 14.6291 17.9995 11.4991 17.9995 7.00009C17.9995 5.40879 17.3674 3.88267 16.2422 2.75745C15.117 1.63223 13.5908 1.00009 11.9995 1.00009C10.4082 1.00009 8.88212 1.63223 7.75691 2.75745C6.63169 3.88267 5.99955 5.40879 5.99955 7.00009C5.99955 11.4991 3.87388 14.6301 2.54688 16.0001Z" stroke="#073830" stroke-width="1.5" stroke-linecap="square"/>
</svg>
