<svg width="24" height="22" viewBox="0 0 24 22" fill="none" xmlns="http://www.w3.org/2000/svg">
<path d="M10.2683 20C10.4439 20.304 10.6963 20.5565 11.0004 20.732C11.3044 20.9075 11.6493 20.9999 12.0003 20.9999C12.3514 20.9999 12.6962 20.9075 13.0003 20.732C13.3043 20.5565 13.5568 20.304 13.7323 20" stroke="#E33046" stroke-width="1.5" stroke-linecap="square"/>
<path d="M2.54712 16H21.4546C20.1246 14.629 17.9998 11.499 17.9998 7C17.9998 5.4087 17.3677 3.88258 16.2424 2.75736C15.1172 1.63214 13.5911 1 11.9998 1C10.4085 1 8.88237 1.63214 7.75715 2.75736C6.63193 3.88258 5.99979 5.4087 5.99979 7C5.99979 11.499 3.87412 14.63 2.54712 16Z" stroke="#E33046" stroke-width="1.5" stroke-linecap="square"/>
</svg>
