<svg width="60" height="60" viewBox="0 0 60 60" fill="none" xmlns="http://www.w3.org/2000/svg">
<g opacity="0.7">
<g clip-path="url(#clip0_40000029_7324)">
<path d="M30.9738 1.4018C28.1285 1.79968 25.4682 1.97548 23.252 1.95697L22.285 4.70044C22.285 4.70044 24.1079 5.36202 24.7742 6.30118C25.4358 7.24034 25.1813 8.58663 24.7048 9.59981L12.1573 35.7391C11.2783 37.5665 10.1864 39.1071 8.06277 39.2829C7.7389 39.3107 6.04555 39.4402 6.04555 39.4402L5.06934 42.1929H20.6888C20.4621 41.3787 20.3372 40.5274 20.3372 39.6391C20.3372 39.5651 20.3418 39.4957 20.3418 39.4263C19.8329 39.3245 19.2823 39.1765 18.8752 38.9914C17.6723 38.4501 17.3808 37.6405 17.9869 36.4099L29.4933 13.2824L33.0605 23.752L45.5616 22.142L37.9184 0C35.9151 0.55517 33.5416 1.04094 30.9738 1.4018Z" fill="black"/>
<path d="M38.9178 43.5901L38.6958 44.0204C37.8445 45.6905 36.5305 47.0645 34.9019 48.0037C33.5232 48.7948 31.9686 49.2343 30.391 49.2898C30.3817 49.2898 30.229 49.2945 30.0717 49.2945C29.956 49.2945 29.8913 49.2898 29.6831 49.2898C26.3612 49.1603 23.303 47.3375 21.6374 44.4691C21.5495 44.3211 21.4708 44.173 21.3922 44.0204L21.1701 43.5901H5C5 43.5901 5.12492 44.5385 6.22606 45.9588C7.01258 46.9766 8.42371 48.3044 10.7278 48.6792L11.2645 49.3222C12.088 50.3123 13.4621 51.4596 15.5719 51.8066L16.1085 52.4497C16.9321 53.4397 18.3062 54.5871 20.4159 54.9341L20.9526 55.5818C21.9335 56.7615 23.7008 58.1679 26.5694 58.1679H28.1146C28.3737 59.2366 28.8225 60 29.572 60H30.3632C31.1173 60 31.5615 59.2366 31.8206 58.1679H33.4306C36.2992 58.1679 38.0665 56.7615 39.0474 55.5818L39.5841 54.9341C41.6938 54.5871 43.0679 53.4397 43.8915 52.4543L44.4282 51.8066C46.5379 51.4596 47.912 50.3123 48.7355 49.3222L49.2676 48.6792C51.9881 48.2397 53.464 46.4724 54.1302 45.4453C54.7594 44.4784 55 43.5901 55 43.5901H38.9178ZM26.5694 57.3768C23.9923 57.3768 22.4239 56.1092 21.568 55.0775H27.8C27.8093 55.8501 27.8602 56.6505 27.9666 57.3768H26.5694ZM29.572 59.2089C29.0585 59.2089 28.6421 57.3953 28.5958 55.0775H29.151C29.3823 55.0775 29.572 54.8924 29.572 54.6611C29.572 54.4344 29.3823 54.2494 29.151 54.2494H21.7253C19.1529 54.2494 17.5798 52.9817 16.7239 51.95H21.7484C21.9797 51.95 22.1694 51.7604 22.1694 51.5337C22.1694 51.307 21.9797 51.1173 21.7484 51.1173H16.8812C14.3042 51.1173 12.7357 49.8543 11.8798 48.818H18.5699C18.8059 48.818 18.9956 48.6329 18.9956 48.4062C18.9956 48.1749 18.8059 47.9898 18.5699 47.9898H12.0371C7.6927 47.9898 6.18904 44.3812 6.18904 44.3812H20.675C20.7583 44.5431 20.8462 44.7051 20.9387 44.867C22.8079 48.087 26.1391 49.9422 29.6183 50.0856C30.1365 50.2013 30.5529 52.1952 30.5529 54.6426C30.5529 57.164 30.1134 59.2089 29.572 59.2089ZM47.9629 47.9898H41.4301C41.1941 47.9898 41.0044 48.1795 41.0044 48.4062C41.0044 48.6329 41.1941 48.8226 41.4301 48.8226H48.1202C47.2643 49.8543 45.6912 51.1173 43.1188 51.1173H38.2516C38.0156 51.1173 37.8259 51.307 37.8259 51.5337C37.8259 51.7604 38.0156 51.95 38.2516 51.95H43.2761C42.4202 52.9817 40.8471 54.2494 38.2747 54.2494H35.0731C34.8418 54.2494 34.6521 54.4344 34.6521 54.6611C34.6521 54.8924 34.8418 55.0775 35.0731 55.0775H38.432C37.5761 56.1092 36.0031 57.3768 33.4306 57.3768H31.9686C32.0982 56.5163 32.1398 55.5494 32.1398 54.6426C32.1398 52.9447 31.9918 51.0248 31.4088 50.0069C32.7413 49.8358 34.0645 49.4055 35.3044 48.693C37.1366 47.6428 38.5246 46.1254 39.4175 44.3812H53.811C53.811 44.3812 52.3073 47.9898 47.9629 47.9898Z" fill="black"/>
<path d="M39.394 42.1975H54.9302L52.6122 38.6213L48.0596 25.4592C47.7913 24.6727 46.6855 23.4282 44.6406 23.6641C42.6419 23.8908 29.9418 25.5933 24.6119 26.2827L19.2589 37.0391C19.1386 37.2889 19.1062 37.4323 19.1016 37.4925C19.1432 37.5295 19.2404 37.6081 19.4624 37.7053C19.6938 37.8117 20.0639 37.9227 20.4849 38.0153C20.9568 35.2857 22.5993 32.7782 25.1948 31.2885C26.7077 30.4187 28.3594 30.0023 29.988 29.9931H30.0852C33.421 30.0116 36.6596 31.7418 38.4455 34.8184C39.3199 36.322 39.7363 37.9597 39.7456 39.579V39.6808C39.741 40.532 39.6207 41.3787 39.394 42.1975ZM47.1066 38.1818C47.051 38.2003 47.0001 38.2096 46.9446 38.2096C46.5606 38.2096 46.1118 37.8025 45.8759 37.2149C45.6029 36.5348 45.7139 35.8732 46.1211 35.7298C46.5282 35.591 47.0742 36.0259 47.3471 36.7014C47.6201 37.3768 47.5091 38.043 47.1066 38.1818ZM49.8085 35.7946C50.1694 35.6697 50.6598 36.0537 50.9004 36.6551C51.141 37.2565 51.0438 37.8441 50.6829 37.969C50.6367 37.9875 50.5904 37.9921 50.5395 37.9921C50.2018 37.9921 49.8039 37.6313 49.5911 37.1085C49.3505 36.5071 49.4476 35.9195 49.8085 35.7946ZM47.6294 32.7226L48.4066 31.1821L48.5732 34.1892L47.8052 34.2262L44.7932 31.4365L47.6294 32.7226ZM45.2466 25.3759C45.8296 25.2649 46.6208 25.9588 47.0094 26.9257C47.4027 27.8927 47.2454 28.7717 46.6624 28.8827C46.6069 28.892 46.5514 28.8966 46.4958 28.892C45.936 28.8642 45.2559 28.2119 44.8997 27.3329C44.511 26.366 44.6637 25.4869 45.2466 25.3759ZM27.7719 27.74L42.3319 26.0282L42.6095 27.74H27.7719Z" fill="black"/>
<path d="M34.6988 38.7648L34.6479 40.0602C34.2037 39.9445 33.3201 40.074 32.8759 40.273C31.3676 40.9438 30.595 42.2901 30.9744 44.2054L29.8084 44.4182C29.6095 43.8122 29.1376 43.2061 28.6934 42.8638C28.4112 42.651 28.2169 42.5353 27.6895 42.3549L27.8051 41.2862C28.2169 41.3185 28.6287 41.3185 29.0543 41.2214C30.0398 41.0271 31.4185 40.1897 31.5619 38.1541C31.5804 37.9089 31.5157 37.2195 31.4 36.9605L32.4826 36.78C33.0101 37.9736 33.5514 38.3206 34.6988 38.7648Z" fill="black"/>
<path d="M30.0389 31.1219C25.3614 31.1219 21.5352 34.9433 21.5352 39.6299C21.5352 44.3211 25.3614 48.1425 30.0389 48.1425C34.7303 48.1425 38.5519 44.3211 38.5519 39.6299C38.5519 34.9433 34.7303 31.1219 30.0389 31.1219ZM23.4737 35.3366C24.2926 34.2031 24.524 33.9903 25.1809 33.4351C25.4585 33.2547 25.6899 33.0095 25.7546 33.0881C25.7685 34.9572 24.9172 35.7113 23.5894 36.2387C23.4737 36.285 23.1267 36.3683 22.9 36.4006C22.9648 36.1231 23.3904 35.4522 23.4737 35.3366ZM35.614 45.1584C35.304 45.4869 34.4018 46.2086 33.8744 46.5001C33.5505 46.5695 32.6113 46.2225 32.2042 45.9126C32.0885 45.8293 31.6952 45.5332 31.3806 45.0752L30.0065 45.288C30.0389 46.0421 29.7428 47.0599 29.331 47.467C29.2154 47.4531 28.7897 47.4346 27.7256 47.1432C26.5412 46.8147 25.6066 46.2086 24.7368 45.4036C24.4592 45.1584 23.7374 44.4367 23.5894 44.0759C23.6033 43.8631 24.4592 43.0072 25.3614 42.5353C25.8055 42.304 26.4255 42.2068 27.0177 42.2068L27.1982 41.1057C26.8882 40.9762 26.5736 40.8281 26.296 40.6014C25.8703 40.2406 25.6251 39.8797 25.2966 39.2043L24.7553 39.2875C24.8339 39.6484 24.8848 39.9584 24.8987 40.2036C24.9172 41.6655 24.2602 42.6648 23.0805 43.2385C22.9648 43.0904 22.6687 42.4011 22.553 42.0402C22.0117 40.421 22.1135 38.7139 22.553 37.2195C23.1591 37.3352 23.4413 37.5341 23.8346 37.8626C24.1122 38.1078 24.2279 38.3021 24.524 38.7462L25.13 38.663C24.8848 36.5996 26.1664 35.0914 27.9708 34.8092L27.9199 34.0088C27.2305 33.6479 26.8049 33.3703 26.5088 32.6301C26.7401 32.4821 27.1149 32.334 27.411 32.2369C28.8869 31.7465 29.8909 31.6632 31.4176 31.8945C32.0885 31.9917 32.4494 32.0749 32.2366 32.4497C31.6767 33.4166 30.9087 34.1383 29.4467 34.2355C29.183 34.254 28.8545 34.2031 28.6417 34.1707L28.6602 34.8092C29.5439 34.9109 30.298 35.3366 30.7283 35.8594C30.793 35.9241 30.9735 36.174 31.0706 36.322L32.2366 36.1416C32.2366 35.5818 32.218 35.207 32.3337 34.7444C32.4818 34.0088 33.2868 32.9586 33.9438 32.7967C35.5677 33.7636 36.7799 35.2533 37.3906 36.7939C37.5017 37.09 37.733 37.7608 37.7145 37.9597C36.9465 38.5843 36.271 38.8434 35.4336 38.8434L35.4012 40.273C36.2571 40.6662 37.2564 41.4666 37.2564 42.7943C36.8956 43.6826 36.1738 44.5663 35.614 45.1584Z" fill="black"/>
</g>
</g>
<defs>
<clipPath id="clip0_40000029_7324">
<rect width="50" height="60" fill="white" transform="translate(5)"/>
</clipPath>
</defs>
</svg>
