<svg width="60" height="60" viewBox="0 0 60 60" fill="none" xmlns="http://www.w3.org/2000/svg">
<g clip-path="url(#clip0_40000006_2744)">
<path d="M30.9739 2.35508C28.1285 2.73969 25.4682 2.90963 23.2521 2.89174L22.2851 5.54376C22.2851 5.54376 24.108 6.18328 24.7742 7.09114C25.4358 7.999 25.1814 9.30041 24.7048 10.2798L12.1574 35.5478C11.2784 37.3143 10.1865 38.8035 8.06284 38.9735C7.73898 39.0003 6.04563 39.1255 6.04563 39.1255L5.06941 41.7865H20.6889C20.4622 40.9994 20.3373 40.1765 20.3373 39.3178C20.3373 39.2463 20.3419 39.1792 20.3419 39.1121C19.833 39.0137 19.2824 38.8706 18.8753 38.6917C17.6724 38.1685 17.3809 37.3858 17.987 36.1962L29.4934 13.8397L33.0605 23.9603L45.5617 22.404L37.9185 1C35.9152 1.53666 33.5417 2.00625 30.9739 2.35508Z" fill="#E33046"/>
<path d="M38.9178 43.1372L38.6958 43.5531C37.8445 45.1676 36.5305 46.4958 34.9019 47.4037C33.5232 48.1684 31.9686 48.5933 30.391 48.647C30.3817 48.647 30.229 48.6514 30.0717 48.6514C29.956 48.6514 29.8913 48.647 29.6831 48.647C26.3612 48.5217 23.303 46.7597 21.6374 43.9869C21.5495 43.8438 21.4708 43.7007 21.3922 43.5531L21.1701 43.1372H5C5 43.1372 5.12492 44.054 6.22606 45.427C7.01258 46.4109 8.42371 47.6944 10.7278 48.0566L11.2645 48.6783C12.088 49.6353 13.4621 50.7444 15.5719 51.0798L16.1085 51.7015C16.9321 52.6585 18.3062 53.7676 20.4159 54.103L20.9526 54.7292C21.9335 55.8696 23.7008 57.2291 26.5694 57.2291H28.1146C28.3737 58.2622 28.8225 59.0001 29.572 59.0001H30.3632C31.1173 59.0001 31.5615 58.2622 31.8206 57.2291H33.4306C36.2992 57.2291 38.0665 55.8696 39.0474 54.7292L39.5841 54.103C41.6938 53.7676 43.0679 52.6585 43.8915 51.7059L44.4282 51.0798C46.5379 50.7444 47.912 49.6353 48.7355 48.6783L49.2676 48.0566C51.9881 47.6318 53.464 45.9234 54.1302 44.9306C54.7594 43.9959 55 43.1372 55 43.1372H38.9178ZM26.5694 56.4644C23.9923 56.4644 22.4239 55.239 21.568 54.2417H27.8C27.8093 54.9885 27.8602 55.7622 27.9666 56.4644H26.5694ZM29.572 58.2354C29.0585 58.2354 28.6421 56.4823 28.5958 54.2417H29.151C29.3823 54.2417 29.572 54.0628 29.572 53.8392C29.572 53.6201 29.3823 53.4412 29.151 53.4412H21.7253C19.1529 53.4412 17.5798 52.2158 16.7239 51.2185H21.7484C21.9797 51.2185 22.1694 51.0351 22.1694 50.816C22.1694 50.5968 21.9797 50.4135 21.7484 50.4135H16.8812C14.3042 50.4135 12.7357 49.1926 11.8798 48.1908H18.5699C18.8059 48.1908 18.9956 48.0119 18.9956 47.7928C18.9956 47.5692 18.8059 47.3903 18.5699 47.3903H12.0371C7.6927 47.3903 6.18904 43.902 6.18904 43.902H20.675C20.7583 44.0585 20.8462 44.215 20.9387 44.3715C22.8079 47.4842 26.1391 49.2775 29.6183 49.4162C30.1365 49.528 30.5529 51.4555 30.5529 53.8213C30.5529 56.2587 30.1134 58.2354 29.572 58.2354ZM47.9629 47.3903H41.4301C41.1941 47.3903 41.0044 47.5736 41.0044 47.7928C41.0044 48.0119 41.1941 48.1953 41.4301 48.1953H48.1202C47.2643 49.1926 45.6912 50.4135 43.1188 50.4135H38.2516C38.0156 50.4135 37.8259 50.5968 37.8259 50.816C37.8259 51.0351 38.0156 51.2185 38.2516 51.2185H43.2761C42.4202 52.2158 40.8471 53.4412 38.2747 53.4412H35.0731C34.8418 53.4412 34.6521 53.6201 34.6521 53.8392C34.6521 54.0628 34.8418 54.2417 35.0731 54.2417H38.432C37.5761 55.239 36.0031 56.4644 33.4306 56.4644H31.9686C32.0982 55.6325 32.1398 54.6979 32.1398 53.8213C32.1398 52.18 31.9918 50.324 31.4088 49.3402C32.7413 49.1747 34.0645 48.7588 35.3044 48.07C37.1366 47.0549 38.5246 45.588 39.4175 43.902H53.811C53.811 43.902 52.3073 47.3903 47.9629 47.3903Z" fill="#073830"/>
<path d="M39.3944 41.7909H54.9306L52.6127 38.3338L48.0601 25.6104C47.7917 24.8502 46.686 23.6471 44.641 23.8752C42.6423 24.0944 29.9422 25.7401 24.6123 26.4065L19.2593 36.8043C19.139 37.0458 19.1066 37.1845 19.102 37.2426C19.1436 37.2784 19.2408 37.3544 19.4629 37.4483C19.6942 37.5512 20.0643 37.6585 20.4854 37.748C20.9573 35.1094 22.5997 32.6855 25.1953 31.2454C26.7082 30.4046 28.3599 30.0021 29.9885 29.9932H30.0856C33.4214 30.0111 36.6601 31.6837 38.4459 34.6577C39.3204 36.1112 39.7368 37.6943 39.746 39.2596V39.358C39.7414 40.1809 39.6211 40.9993 39.3944 41.7909ZM47.107 37.909C47.0515 37.9269 47.0006 37.9358 46.9451 37.9358C46.5611 37.9358 46.1123 37.5423 45.8763 36.9743C45.6033 36.3169 45.7144 35.6774 46.1215 35.5387C46.5287 35.4046 47.0746 35.8249 47.3476 36.4779C47.6206 37.1308 47.5095 37.7748 47.107 37.909ZM49.8089 35.6013C50.1698 35.4806 50.6602 35.8518 50.9008 36.4332C51.1414 37.0145 51.0443 37.5825 50.6834 37.7033C50.6371 37.7212 50.5908 37.7256 50.54 37.7256C50.2022 37.7256 49.8043 37.3768 49.5915 36.8714C49.3509 36.29 49.4481 35.7221 49.8089 35.6013ZM47.6298 32.6318L48.4071 31.1425L48.5736 34.0495L47.8056 34.0853L44.7937 31.3885L47.6298 32.6318ZM45.2471 25.5299C45.83 25.4226 46.6212 26.0934 47.0098 27.0281C47.4031 27.9628 47.2458 28.8125 46.6628 28.9199C46.6073 28.9288 46.5518 28.9333 46.4963 28.9288C45.9365 28.902 45.2563 28.2714 44.9001 27.4217C44.5115 26.487 44.6641 25.6373 45.2471 25.5299ZM27.7723 27.8152L42.3323 26.1605L42.6099 27.8152H27.7723Z" fill="#348D8B"/>
<path d="M34.6984 38.4725L34.6475 39.7247C34.2033 39.6129 33.3196 39.7382 32.8755 39.9305C31.3672 40.5789 30.5945 41.8803 30.9739 43.7318L29.808 43.9376C29.6091 43.3517 29.1372 42.7658 28.693 42.4349C28.4108 42.2292 28.2165 42.1174 27.689 41.943L27.8047 40.9099C28.2165 40.9412 28.6282 40.9412 29.0539 40.8473C30.0394 40.6594 31.4181 39.85 31.5615 37.8822C31.58 37.6452 31.5152 36.9788 31.3996 36.7284L32.4822 36.554C33.0097 37.7078 33.551 38.0432 34.6984 38.4725Z" fill="#073830"/>
<path d="M30.0393 31.0845C25.3618 31.0845 21.5356 34.7785 21.5356 39.3089C21.5356 43.8437 25.3618 47.5377 30.0393 47.5377C34.7307 47.5377 38.5523 43.8437 38.5523 39.3089C38.5523 34.7785 34.7307 31.0845 30.0393 31.0845ZM23.4741 35.1586C24.293 34.063 24.5244 33.8572 25.1813 33.3206C25.4589 33.1462 25.6903 32.9091 25.755 32.9852C25.7689 34.7919 24.9176 35.5209 23.5898 36.0307C23.4741 36.0755 23.1271 36.156 22.9004 36.1873C22.9652 35.9189 23.3908 35.2705 23.4741 35.1586ZM35.6144 44.6531C35.3044 44.9707 34.4022 45.6683 33.8748 45.9501C33.5509 46.0172 32.6117 45.6817 32.2046 45.3821C32.0889 45.3016 31.6956 45.0154 31.381 44.5726L30.0069 44.7784C30.0393 45.5073 29.7432 46.4912 29.3314 46.8848C29.2158 46.8713 28.7901 46.8535 27.726 46.5717C26.5416 46.2542 25.607 45.6683 24.7372 44.8902C24.4596 44.6531 23.7378 43.9555 23.5898 43.6066C23.6037 43.4009 24.4596 42.5736 25.3618 42.1174C25.8059 41.8938 26.4259 41.7999 27.0181 41.7999L27.1985 40.7355C26.8886 40.6103 26.574 40.4672 26.2964 40.248C25.8707 39.8992 25.6255 39.5504 25.297 38.8974L24.7557 38.9779C24.8343 39.3267 24.8852 39.6264 24.8991 39.8634C24.9176 41.2766 24.2606 42.2426 23.0808 42.7972C22.9652 42.6541 22.6691 41.9877 22.5534 41.6389C22.0121 40.0736 22.1139 38.4234 22.5534 36.9788C23.1595 37.0906 23.4417 37.2829 23.835 37.6005C24.1126 37.8375 24.2283 38.0253 24.5244 38.4547L25.1304 38.3742C24.8852 36.3796 26.1668 34.9216 27.9712 34.6488L27.9203 33.8751C27.2309 33.5263 26.8053 33.258 26.5092 32.5424C26.7405 32.3993 27.1153 32.2562 27.4114 32.1623C28.8873 31.6882 29.8912 31.6077 31.418 31.8313C32.0889 31.9252 32.4498 32.0057 32.2369 32.368C31.6771 33.3027 30.9091 34.0003 29.4471 34.0943C29.1834 34.1122 28.8549 34.063 28.6421 34.0317L28.6606 34.6488C29.5443 34.7472 30.2984 35.1587 30.7287 35.664C30.7934 35.7266 30.9739 35.9681 31.071 36.1112L32.2369 35.9368C32.2369 35.3957 32.2184 35.0334 32.3341 34.5862C32.4822 33.8751 33.2872 32.8599 33.9442 32.7034C35.5681 33.6381 36.7803 35.0781 37.391 36.5674C37.5021 36.8536 37.7334 37.5021 37.7149 37.6944C36.9469 38.2981 36.2714 38.5486 35.434 38.5486L35.4016 39.9305C36.2575 40.3106 37.2568 41.0843 37.2568 42.3678C36.896 43.2265 36.1742 44.0807 35.6144 44.6531Z" fill="#073830"/>
</g>
<defs>
<clipPath id="clip0_40000006_2744">
<rect width="50" height="58" fill="white" transform="translate(5 1)"/>
</clipPath>
</defs>
</svg>
