<svg width="20" height="20" viewBox="0 0 20 20" fill="none" xmlns="http://www.w3.org/2000/svg">
<path d="M9.07745 2.87695C12.3045 2.87721 14.921 5.4817 14.9212 8.69629C14.9212 10.0414 14.4638 11.2801 13.6946 12.2656L13.5687 12.4258L13.7132 12.5703L17.5706 16.4111L17.6419 16.4824L17.5706 16.5537L16.9671 17.1543L16.8968 17.2246L16.8255 17.1543L12.8226 13.1689L12.6614 13.2949C11.6718 14.0611 10.4281 14.5165 9.07745 14.5166C5.85027 14.5164 3.23371 11.9111 3.2337 8.69629C3.23391 5.48168 5.85041 2.87716 9.07745 2.87695ZM9.07745 3.92676C6.43154 3.92694 4.28644 6.06336 4.28644 8.69727C4.28672 11.3309 6.4317 13.4666 9.07745 13.4668C11.7232 13.4666 13.8672 11.331 13.8675 8.69727C13.8675 6.06334 11.7234 3.92694 9.07745 3.92676Z" fill="black" stroke="black" stroke-width="0.2"/>
</svg>
