<svg width="20" height="20" viewBox="0 0 20 20" fill="none" xmlns="http://www.w3.org/2000/svg">
<g opacity="0.8">
<g clip-path="url(#clip0_40000048_14218)">
<path d="M10.3109 1.15335C9.40041 1.27643 8.54911 1.33081 7.83994 1.32508L7.53051 2.17373C7.53051 2.17373 8.11383 2.37838 8.32703 2.66889C8.53874 2.95941 8.45731 3.37586 8.30482 3.68927L4.28964 11.775C4.00835 12.3403 3.65894 12.8169 2.97938 12.8712C2.87575 12.8798 2.33387 12.9199 2.33387 12.9199L2.02148 13.7714H7.01973C6.94718 13.5195 6.90721 13.2562 6.90721 12.9814C6.90721 12.9585 6.90869 12.9371 6.90869 12.9156C6.74583 12.8841 6.56965 12.8383 6.43936 12.7811C6.05443 12.6136 5.96115 12.3632 6.1551 11.9825L9.83716 4.82843L10.9786 8.06702L14.979 7.56899L12.5332 0.719727C11.8921 0.891459 11.1326 1.04173 10.3109 1.15335Z" fill="white"/>
<path d="M12.8537 14.2036L12.7826 14.3367C12.5102 14.8533 12.0898 15.2784 11.5686 15.5689C11.1274 15.8136 10.63 15.9496 10.1251 15.9667C10.1221 15.9667 10.0733 15.9682 10.0229 15.9682C9.98594 15.9682 9.96521 15.9667 9.89858 15.9667C8.83557 15.9267 7.85695 15.3628 7.32396 14.4755C7.29583 14.4297 7.27066 14.3839 7.24549 14.3367L7.17442 14.2036H2C2 14.2036 2.03997 14.497 2.39234 14.9363C2.64403 15.2512 3.09559 15.6619 3.83289 15.7778L4.00463 15.9768C4.26816 16.283 4.70787 16.6379 5.38299 16.7453L5.55473 16.9442C5.81827 17.2504 6.25798 17.6054 6.9331 17.7127L7.10484 17.913C7.41871 18.278 7.98427 18.713 8.90219 18.713H9.39669C9.4796 19.0436 9.62321 19.2797 9.86305 19.2797H10.1162C10.3575 19.2797 10.4997 19.0436 10.5826 18.713H11.0978C12.0157 18.713 12.5813 18.278 12.8952 17.913L13.0669 17.7127C13.742 17.6054 14.1817 17.2504 14.4453 16.9456L14.617 16.7453C15.2921 16.6379 15.7318 16.283 15.9954 15.9768L16.1656 15.7778C17.0362 15.6419 17.5085 15.0952 17.7217 14.7775C17.923 14.4784 18 14.2036 18 14.2036H12.8537ZM8.90219 18.4683C8.07754 18.4683 7.57565 18.0762 7.30175 17.757H9.29601C9.29897 17.996 9.31526 18.2436 9.34931 18.4683H8.90219ZM9.86305 19.035C9.69871 19.035 9.56547 18.474 9.55066 17.757H9.72832C9.80235 17.757 9.86305 17.6998 9.86305 17.6282C9.86305 17.5581 9.80235 17.5009 9.72832 17.5009H7.35209C6.52892 17.5009 6.02554 17.1088 5.75164 16.7896H7.35949C7.43352 16.7896 7.49422 16.7309 7.49422 16.6608C7.49422 16.5907 7.43352 16.532 7.35949 16.532H5.80198C4.97733 16.532 4.47543 16.1413 4.20154 15.8208H6.34237C6.41788 15.8208 6.47858 15.7635 6.47858 15.6934C6.47858 15.6218 6.41788 15.5646 6.34237 15.5646H4.25187C2.86166 15.5646 2.38049 14.4483 2.38049 14.4483H7.01601C7.04266 14.4984 7.07079 14.5485 7.1004 14.5986C7.69853 15.5946 8.7645 16.1685 9.87786 16.2129C10.0437 16.2487 10.1769 16.8655 10.1769 17.6225C10.1769 18.4025 10.0363 19.035 9.86305 19.035ZM15.7481 15.5646H13.6576C13.5821 15.5646 13.5214 15.6233 13.5214 15.6934C13.5214 15.7635 13.5821 15.8222 13.6576 15.8222H15.7985C15.5246 16.1413 15.0212 16.532 14.198 16.532H12.6405C12.565 16.532 12.5043 16.5907 12.5043 16.6608C12.5043 16.7309 12.565 16.7896 12.6405 16.7896H14.2484C13.9745 17.1088 13.4711 17.5009 12.6479 17.5009H11.6234C11.5494 17.5009 11.4887 17.5581 11.4887 17.6282C11.4887 17.6998 11.5494 17.757 11.6234 17.757H12.6983C12.4244 18.0762 11.921 18.4683 11.0978 18.4683H10.63C10.6714 18.2021 10.6847 17.903 10.6847 17.6225C10.6847 17.0973 10.6374 16.5034 10.4508 16.1886C10.8772 16.1356 11.3006 16.0025 11.6974 15.7821C12.2837 15.4573 12.7279 14.9879 13.0136 14.4483H17.6195C17.6195 14.4483 17.1383 15.5646 15.7481 15.5646Z" fill="white"/>
<path d="M13.0053 13.7728H17.9769L17.2351 12.6666L15.7783 8.59508C15.6924 8.3518 15.3386 7.96683 14.6842 8.03982C14.0446 8.10994 9.98058 8.63659 8.27502 8.84982L6.56206 12.1771C6.52356 12.2544 6.5132 12.2988 6.51172 12.3174C6.52504 12.3288 6.55613 12.3532 6.6272 12.3832C6.70123 12.4161 6.81967 12.4505 6.95439 12.4791C7.10541 11.6347 7.63099 10.8591 8.46157 10.3983C8.9457 10.1292 9.47424 10.0004 9.99539 9.99757H10.0265C11.0939 10.0033 12.1303 10.5385 12.7018 11.4902C12.9816 11.9553 13.1148 12.4619 13.1178 12.9628V12.9943C13.1163 13.2576 13.0778 13.5195 13.0053 13.7728ZM15.4733 12.5306C15.4556 12.5363 15.4393 12.5392 15.4215 12.5392C15.2986 12.5392 15.155 12.4133 15.0795 12.2315C14.9921 12.0211 15.0277 11.8165 15.158 11.7721C15.2883 11.7292 15.463 11.8637 15.5503 12.0727C15.6377 12.2816 15.6021 12.4877 15.4733 12.5306ZM16.3379 11.7922C16.4534 11.7535 16.6104 11.8723 16.6873 12.0584C16.7643 12.2444 16.7332 12.4262 16.6178 12.4648C16.603 12.4705 16.5881 12.4719 16.5719 12.4719C16.4638 12.4719 16.3365 12.3603 16.2684 12.1986C16.1914 12.0126 16.2225 11.8308 16.3379 11.7922ZM15.6406 10.8419L15.8893 10.3654L15.9426 11.2956L15.6969 11.307L14.7331 10.4441L15.6406 10.8419ZM14.8781 8.56932C15.0647 8.53498 15.3179 8.74964 15.4422 9.04874C15.5681 9.34785 15.5177 9.61975 15.3312 9.6541C15.3134 9.65696 15.2957 9.65839 15.2779 9.65696C15.0987 9.64838 14.8811 9.44659 14.7671 9.17468C14.6427 8.87558 14.6916 8.60367 14.8781 8.56932ZM9.28622 9.30062L13.9454 8.77111L14.0342 9.30062H9.28622Z" fill="white"/>
<path d="M11.5028 12.7111L11.4865 13.1118C11.3443 13.076 11.0616 13.1161 10.9194 13.1777C10.4368 13.3852 10.1895 13.8016 10.3109 14.3941L9.93784 14.4599C9.87418 14.2724 9.72317 14.085 9.58104 13.9791C9.49073 13.9132 9.42855 13.8775 9.25977 13.8216L9.29678 13.4911C9.42855 13.5011 9.56031 13.5011 9.69652 13.471C10.0119 13.4109 10.4531 13.1519 10.499 12.5222C10.5049 12.4464 10.4842 12.2331 10.4471 12.153L10.7936 12.0972C10.9624 12.4664 11.1356 12.5737 11.5028 12.7111Z" fill="white"/>
<path d="M10.0122 10.3467C8.51541 10.3467 7.29102 11.5288 7.29102 12.9785C7.29102 14.4296 8.51541 15.6117 10.0122 15.6117C11.5135 15.6117 12.7364 14.4296 12.7364 12.9785C12.7364 11.5288 11.5135 10.3467 10.0122 10.3467ZM7.91135 11.6504C8.17341 11.2998 8.24743 11.234 8.45767 11.0622C8.5465 11.0064 8.62052 10.9306 8.64125 10.9549C8.64569 11.5331 8.37328 11.7663 7.94837 11.9295C7.91135 11.9438 7.80031 11.9696 7.72777 11.9796C7.7485 11.8937 7.8847 11.6862 7.91135 11.6504ZM11.7962 14.6887C11.697 14.7903 11.4083 15.0135 11.2396 15.1037C11.1359 15.1251 10.8354 15.0178 10.7051 14.9219C10.6681 14.8962 10.5422 14.8046 10.4416 14.6629L10.0019 14.7287C10.0122 14.962 9.91746 15.2768 9.7857 15.4028C9.74868 15.3985 9.61247 15.3928 9.27195 15.3026C8.89294 15.201 8.59387 15.0135 8.31554 14.7645C8.22671 14.6887 7.99574 14.4654 7.94837 14.3538C7.95281 14.2879 8.22671 14.0232 8.51541 13.8772C8.65754 13.8057 8.85593 13.7756 9.04543 13.7756L9.10317 13.435C9.00398 13.3949 8.9033 13.3491 8.81447 13.279C8.67826 13.1674 8.5998 13.0558 8.49468 12.8468L8.32146 12.8726C8.34663 12.9842 8.36291 13.0801 8.36735 13.1559C8.37328 13.6082 8.16304 13.9173 7.78551 14.0947C7.7485 14.0489 7.65374 13.8357 7.61673 13.7241C7.44351 13.2232 7.47608 12.6951 7.61673 12.2329C7.81068 12.2687 7.90099 12.3302 8.02683 12.4318C8.11567 12.5076 8.15268 12.5678 8.24743 12.7051L8.44138 12.6794C8.36291 12.0411 8.77302 11.5746 9.35042 11.4873L9.33414 11.2397C9.11354 11.1281 8.97733 11.0422 8.88258 10.8132C8.9566 10.7674 9.07652 10.7216 9.17128 10.6916C9.64356 10.5399 9.96484 10.5141 10.4534 10.5857C10.6681 10.6157 10.7836 10.6415 10.7155 10.7574C10.5363 11.0565 10.2906 11.2798 9.82271 11.3098C9.73832 11.3155 9.6332 11.2998 9.5651 11.2898L9.57102 11.4873C9.8538 11.5188 10.0951 11.6504 10.2328 11.8121C10.2535 11.8322 10.3113 11.9094 10.3424 11.9552L10.7155 11.8994C10.7155 11.7263 10.7095 11.6103 10.7466 11.4672C10.7939 11.2397 11.0515 10.9148 11.2618 10.8647C11.7814 11.1638 12.1693 11.6247 12.3648 12.1012C12.4003 12.1928 12.4743 12.4003 12.4684 12.4619C12.2226 12.6551 12.0065 12.7352 11.7385 12.7352L11.7281 13.1774C12.002 13.299 12.3218 13.5466 12.3218 13.9574C12.2063 14.2321 11.9754 14.5055 11.7962 14.6887Z" fill="white"/>
</g>
</g>
<defs>
<clipPath id="clip0_40000048_14218">
<rect width="16" height="18.56" fill="white" transform="translate(2 0.719727)"/>
</clipPath>
</defs>
</svg>
