<svg width="24.000000" height="24.000000" viewBox="0 0 24 24" fill="none" xmlns="http://www.w3.org/2000/svg" xmlns:xlink="http://www.w3.org/1999/xlink">
	<desc>
			Created with Pixso.
	</desc>
	<defs>
		<clipPath id="clip2_18561">
			<rect id="Social Icon" rx="0.000000" width="23.000000" height="23.000000" transform="translate(0.500000 0.500000)" fill="white" fill-opacity="0"/>
		</clipPath>
	</defs>
	<rect id="Social Icon" rx="0.000000" width="23.000000" height="23.000000" transform="translate(0.500000 0.500000)" fill="#FFFFFF" fill-opacity="0"/>
	<g clip-path="url(#clip2_18561)">
		<g opacity="0.300000">
			<rect id="Rectangle 37" x="2.000000" y="2.000000" rx="67.000000" width="252.000000" height="252.000000" stroke="#FF0000" stroke-opacity="1.000000" stroke-width="4.000000"/>
			<g style="mix-blend-mode:normal">
				<mask id="mask_2_18556" fill="white">
					<path id="Combined Shape" d="M95 0L97 0L97 29.7471C106.481 26.7583 116.555 25.104 127 25.0049L127 0L129 0L129 25.0049C139.445 25.104 149.519 26.7583 159 29.7471L159 0L161 0L161 30.3999C161.577 30.5952 162.152 30.7949 162.724 31L191 31L191 2L193 2L193 31L223 31L223 11L225 11L225 29.5859L234.455 20.1313L235.869 21.5454L226.414 31L244 31L244 33L225 33L225 63L254 63L254 65L225 65L225 93.2754C225.205 93.8481 225.405 94.4229 225.6 95L256 95L256 97L226.253 97C229.242 106.481 230.896 116.555 230.995 127L256 127L256 129L230.995 129C230.896 139.445 229.242 149.519 226.253 159L256 159L256 161L225.6 161C225.405 161.577 225.205 162.152 225 162.725L225 191L254 191L254 193L225 193L225 223L244 223L244 225L226.414 225L236.126 234.712L234.712 236.126L225 226.415L225 245L223 245L223 225L193 225L193 254L191 254L191 225L162.724 225C162.152 225.205 161.577 225.405 161 225.6L161 256L159 256L159 226.253C149.519 229.242 139.445 230.896 129 230.995L129 256L127 256L127 230.995C116.555 230.896 106.481 229.242 97 226.253L97 256L95 256L95 225.6C94.4229 225.405 93.8481 225.205 93.2756 225L65 225L65 253L63 253L63 225L33 225L33 244L31 244L31 226.415L21.5455 235.869L20.1313 234.455L29.5859 225L12 225L12 223L31 223L31 193L2 193L2 191L31 191L31 162.725C30.795 162.152 30.595 161.577 30.4 161L0 161L0 159L29.7468 159C26.7582 149.519 25.1041 139.445 25.0048 129L0 129L0 127L25.0048 127C25.1041 116.555 26.7582 106.481 29.7468 97L0 97L0 95L30.4 95C30.595 94.4229 30.795 93.8481 31 93.2754L31 65L2 65L2 63L31 63L31 33L12 33L12 31L29.5856 31L19.8737 21.2881L21.288 19.874L31 29.5859L31 12L33 12L33 31L63 31L63 3L65 3L65 31L93.2756 31C93.8481 30.7949 94.4229 30.5952 95 30.3999L95 0ZM97 33L97 63L127 63L127 33L97 33ZM97 65L97 70.8545C101.663 68.3193 106.672 66.3384 111.937 65L97 65ZM97 73.1421L97 95L127 95L127 65.0078C116.105 65.1772 105.881 68.1123 97 73.1421ZM97 98.4146L97 127L102.019 127C102.262 120.574 104.837 114.746 108.922 110.336L97 98.4146ZM97 129L97 157.586L108.922 145.664C104.837 141.254 102.262 135.426 102.019 129L97 129ZM97 161L97 182.858C105.881 187.888 116.105 190.823 127 190.992L127 161L97 161ZM97 185.146L97 191L111.937 191C106.672 189.662 101.663 187.681 97 185.146ZM97 193L97 223L127 223L127 193L97 193ZM95 223L95 193L65 193L65 206.948C73.5232 213.758 83.1735 219.217 93.6262 223L95 223ZM95 191L95 184.012C90.549 181.384 86.4385 178.24 82.7506 174.664L66.4144 191L95 191ZM95 181.676L95 162.415L84.165 173.25C87.4514 176.434 91.0837 179.263 95 181.676ZM95 159L95 129L65.0078 129C65.1773 139.895 68.1125 150.119 73.1421 159L95 159ZM95 127L95 97L73.1421 97C68.1125 105.881 65.1773 116.105 65.0078 127L95 127ZM95 93.5859L95 74.3242C91.0836 76.7368 87.4514 79.5664 84.1649 82.751L95 93.5859ZM95 71.9883L95 65L66.4141 65L82.7505 81.3364C86.4384 77.7598 90.549 74.6162 95 71.9883ZM95 63L95 33L93.6262 33C83.1735 36.7827 73.5232 42.2417 65 49.0522L65 63L95 63ZM129 27.0049L129 31L156.237 31C147.581 28.4849 138.445 27.0967 129 27.0049ZM129 33L129 63L159 63L159 33L129 33ZM129 65.0078L129 95L159 95L159 73.1421C150.119 68.1123 139.895 65.1772 129 65.0078ZM129 97L129 102.019C135.426 102.262 141.254 104.837 145.664 108.922L157.586 97L129 97ZM129 104.021L129 125.586L144.249 110.337C140.203 106.613 134.874 104.261 129 104.021ZM129 130.415L129 151.979C134.874 151.739 140.203 149.387 144.249 145.663L129 130.415ZM129 153.981L129 159L157.586 159L145.664 147.079C141.254 151.163 135.426 153.738 129 153.981ZM129 161L129 190.992C139.895 190.823 150.119 187.888 159 182.858L159 161L129 161ZM129 193L129 223L159 223L159 193L129 193ZM129 225L129 228.995C138.445 228.903 147.581 227.515 156.237 225L129 225ZM127 228.995L127 225L99.7635 225C108.419 227.515 117.555 228.903 127 228.995ZM127 159L127 153.981C120.574 153.738 114.746 151.163 110.336 147.079L98.4144 159L127 159ZM127 151.979L127 130.415L111.751 145.663C115.797 149.387 121.126 151.739 127 151.979ZM127 125.586L127 104.021C121.126 104.261 115.797 106.613 111.751 110.337L127 125.586ZM127 102.019L127 97L98.4141 97L110.336 108.922C114.746 104.837 120.574 102.262 127 102.019ZM127 31L127 27.0049C117.555 27.0967 108.419 28.4849 99.7635 31L127 31ZM161 33L161 63L191 63L191 49.0522C182.477 42.2417 172.827 36.7827 162.374 33L161 33ZM161 65L161 71.9883C165.451 74.6162 169.562 77.7598 173.25 81.3364L189.586 65L161 65ZM161 74.3242L161 93.5859L171.835 82.751C168.549 79.5664 164.916 76.7368 161 74.3242ZM161 97L161 127L190.992 127C190.823 116.105 187.888 105.881 182.858 97L161 97ZM161 129L161 159L182.858 159C187.888 150.119 190.823 139.895 190.992 129L161 129ZM161 162.415L161 181.676C164.916 179.263 168.549 176.434 171.835 173.25L161 162.415ZM161 184.012L161 191L189.586 191L173.249 174.664C169.562 178.24 165.451 181.384 161 184.012ZM161 193L161 223L162.374 223C172.827 219.217 182.477 213.758 191 206.948L191 193L161 193ZM159 191L159 185.146C154.337 187.681 149.328 189.662 144.063 191L159 191ZM159 157.586L159 129L153.981 129C153.738 135.426 151.163 141.254 147.078 145.664L159 157.586ZM159 127L159 98.4146L147.078 110.336C151.163 114.746 153.738 120.574 153.981 127L159 127ZM159 70.8545L159 65L144.063 65C149.328 66.3384 154.337 68.3193 159 70.8545ZM193 33L193 48.0957C195.472 50.1089 197.848 52.2344 200.122 54.4644L221.586 33L193 33ZM193 50.6924L193 61.5859L198.707 55.8789C196.872 54.0791 194.968 52.3486 193 50.6924ZM193 65L193 95L223 95L223 93.6265C219.217 83.1733 213.758 73.5229 206.948 65L193 65ZM193 97L193 127L223 127L223 97L193 97ZM193 129L193 159L223 159L223 129L193 129ZM193 161L193 191L206.948 191C213.758 182.477 219.217 172.827 223 162.374L223 161L193 161ZM193 194.415L193 205.308C194.968 203.651 196.872 201.921 198.707 200.122L193 194.415ZM193 207.904L193 223L221.586 223L200.121 201.536C197.848 203.766 195.472 205.891 193 207.904ZM191 223L191 209.492C183.959 214.944 176.192 219.503 167.869 223L191 223ZM191 189.586L191 161L184.012 161C181.384 165.451 178.24 169.562 174.664 173.25L191 189.586ZM191 159L191 144.063C189.662 149.328 187.681 154.336 185.146 159L191 159ZM191 111.937L191 97L185.146 97C187.681 101.664 189.662 106.672 191 111.937ZM191 95L191 66.4146L174.664 82.7505C178.24 86.4385 181.384 90.5488 184.012 95L191 95ZM191 46.5078L191 33L167.869 33C176.192 36.4971 183.959 41.0562 191 46.5078ZM65 33L65 46.5078C72.0412 41.0562 79.8082 36.4971 88.1313 33L65 33ZM65 66.4146L65 95L71.9881 95C74.6161 90.5488 77.7595 86.4385 81.3363 82.7505L65 66.4146ZM65 97L65 111.937C66.3383 106.672 68.3193 101.664 70.8545 97L65 97ZM65 144.063L65 159L70.8545 159C68.3193 154.336 66.3383 149.328 65 144.063ZM65 161L65 189.586L81.3364 173.25C77.7596 169.562 74.6161 165.451 71.9881 161L65 161ZM65 209.492L65 223L88.1313 223C79.8082 219.503 72.0412 214.944 65 209.492ZM63 223L63 207.904C60.5284 205.891 58.152 203.766 55.8786 201.536L34.4144 223L63 223ZM63 205.308L63 194.415L57.2929 200.122C59.1283 201.921 61.0321 203.651 63 205.308ZM63 191L63 161L33 161L33 162.374C36.7829 172.827 42.2418 182.477 49.0522 191L63 191ZM63 159L63 129L33 129L33 159L63 159ZM63 127L63 97L33 97L33 127L63 127ZM63 95L63 65L49.0522 65C42.2418 73.5229 36.7829 83.1733 33 93.6265L33 95L63 95ZM63 61.5859L63 50.6924C61.032 52.3486 59.1282 54.0791 57.2927 55.8789L63 61.5859ZM63 48.0957L63 33L34.4141 33L55.8784 54.4644C58.1519 52.2344 60.5284 50.1089 63 48.0957ZM225 99.7637L225 127L228.995 127C228.904 117.555 227.515 108.419 225 99.7637ZM225 129L225 156.236C227.515 147.581 228.904 138.445 228.995 129L225 129ZM223 221.586L223 193L207.904 193C205.891 195.472 203.766 197.848 201.536 200.122L223 221.586ZM223 191L223 167.869C219.503 176.192 214.944 183.959 209.492 191L223 191ZM223 88.1313L223 65L209.492 65C214.944 72.041 219.503 79.8081 223 88.1313ZM223 63L223 34.4146L201.536 55.8784C203.766 58.1519 205.891 60.5283 207.904 63L223 63ZM33 34.4146L33 63L48.0959 63C50.1089 60.5283 52.2343 58.1519 54.4642 55.8784L33 34.4146ZM33 65L33 88.1313C36.4972 79.8081 41.0562 72.041 46.5076 65L33 65ZM33 167.869L33 191L46.5076 191C41.0562 183.959 36.4972 176.192 33 167.869ZM33 193L33 221.586L54.4644 200.122C52.2343 197.848 50.1089 195.472 48.0959 193L33 193ZM31 156.236L31 129L27.0049 129C27.0965 138.445 28.4846 147.581 31 156.236ZM31 127L31 99.7637C28.4846 108.419 27.0965 117.555 27.0049 127L31 127ZM130.414 129L145.663 144.249C149.387 140.203 151.739 134.874 151.98 129L130.414 129ZM162.414 161L173.249 171.835C176.434 168.549 179.263 164.917 181.676 161L162.414 161ZM194.414 193L200.121 198.707C201.921 196.872 203.651 194.968 205.308 193L194.414 193ZM125.586 127L110.337 111.751C106.613 115.797 104.261 121.126 104.02 127L125.586 127ZM93.5856 95L82.7507 84.165C79.5663 87.4517 76.7368 91.0835 74.324 95L93.5856 95ZM61.5856 63L55.8785 57.293C54.0789 59.1284 52.3488 61.0322 50.6924 63L61.5856 63ZM200.121 57.293L194.414 63L205.308 63C203.651 61.0322 201.921 59.1284 200.121 57.293ZM173.249 84.165L162.414 95L181.676 95C179.263 91.0835 176.434 87.4517 173.249 84.165ZM145.663 111.751L130.414 127L151.98 127C151.739 121.126 149.387 115.797 145.663 111.751ZM55.8787 198.707L61.5859 193L50.6924 193C52.3488 194.968 54.079 196.872 55.8787 198.707ZM82.7508 171.835L93.5859 161L74.324 161C76.7369 164.917 79.5664 168.549 82.7508 171.835ZM110.337 144.249L125.586 129L104.02 129C104.261 134.874 106.613 140.203 110.337 144.249Z" clip-rule="evenodd" fill="" fill-opacity="1.000000" fill-rule="evenodd"/>
				</mask>
				<path id="Combined Shape" d="M95 0L97 0L97 29.7471C106.481 26.7583 116.555 25.104 127 25.0049L127 0L129 0L129 25.0049C139.445 25.104 149.519 26.7583 159 29.7471L159 0L161 0L161 30.3999C161.577 30.5952 162.152 30.7949 162.724 31L191 31L191 2L193 2L193 31L223 31L223 11L225 11L225 29.5859L234.455 20.1313L235.869 21.5454L226.414 31L244 31L244 33L225 33L225 63L254 63L254 65L225 65L225 93.2754C225.205 93.8481 225.405 94.4229 225.6 95L256 95L256 97L226.253 97C229.242 106.481 230.896 116.555 230.995 127L256 127L256 129L230.995 129C230.896 139.445 229.242 149.519 226.253 159L256 159L256 161L225.6 161C225.405 161.577 225.205 162.152 225 162.725L225 191L254 191L254 193L225 193L225 223L244 223L244 225L226.414 225L236.126 234.712L234.712 236.126L225 226.415L225 245L223 245L223 225L193 225L193 254L191 254L191 225L162.724 225C162.152 225.205 161.577 225.405 161 225.6L161 256L159 256L159 226.253C149.519 229.242 139.445 230.896 129 230.995L129 256L127 256L127 230.995C116.555 230.896 106.481 229.242 97 226.253L97 256L95 256L95 225.6C94.4229 225.405 93.8481 225.205 93.2756 225L65 225L65 253L63 253L63 225L33 225L33 244L31 244L31 226.415L21.5455 235.869L20.1313 234.455L29.5859 225L12 225L12 223L31 223L31 193L2 193L2 191L31 191L31 162.725C30.795 162.152 30.595 161.577 30.4 161L0 161L0 159L29.7468 159C26.7582 149.519 25.1041 139.445 25.0048 129L0 129L0 127L25.0048 127C25.1041 116.555 26.7582 106.481 29.7468 97L0 97L0 95L30.4 95C30.595 94.4229 30.795 93.8481 31 93.2754L31 65L2 65L2 63L31 63L31 33L12 33L12 31L29.5856 31L19.8737 21.2881L21.288 19.874L31 29.5859L31 12L33 12L33 31L63 31L63 3L65 3L65 31L93.2756 31C93.8481 30.7949 94.4229 30.5952 95 30.3999L95 0ZM97 33L97 63L127 63L127 33L97 33ZM97 65L97 70.8545C101.663 68.3193 106.672 66.3384 111.937 65L97 65ZM97 73.1421L97 95L127 95L127 65.0078C116.105 65.1772 105.881 68.1123 97 73.1421ZM97 98.4146L97 127L102.019 127C102.262 120.574 104.837 114.746 108.922 110.336L97 98.4146ZM97 129L97 157.586L108.922 145.664C104.837 141.254 102.262 135.426 102.019 129L97 129ZM97 161L97 182.858C105.881 187.888 116.105 190.823 127 190.992L127 161L97 161ZM97 185.146L97 191L111.937 191C106.672 189.662 101.663 187.681 97 185.146ZM97 193L97 223L127 223L127 193L97 193ZM95 223L95 193L65 193L65 206.948C73.5232 213.758 83.1735 219.217 93.6262 223L95 223ZM95 191L95 184.012C90.549 181.384 86.4385 178.24 82.7506 174.664L66.4144 191L95 191ZM95 181.676L95 162.415L84.165 173.25C87.4514 176.434 91.0837 179.263 95 181.676ZM95 159L95 129L65.0078 129C65.1773 139.895 68.1125 150.119 73.1421 159L95 159ZM95 127L95 97L73.1421 97C68.1125 105.881 65.1773 116.105 65.0078 127L95 127ZM95 93.5859L95 74.3242C91.0836 76.7368 87.4514 79.5664 84.1649 82.751L95 93.5859ZM95 71.9883L95 65L66.4141 65L82.7505 81.3364C86.4384 77.7598 90.549 74.6162 95 71.9883ZM95 63L95 33L93.6262 33C83.1735 36.7827 73.5232 42.2417 65 49.0522L65 63L95 63ZM129 27.0049L129 31L156.237 31C147.581 28.4849 138.445 27.0967 129 27.0049ZM129 33L129 63L159 63L159 33L129 33ZM129 65.0078L129 95L159 95L159 73.1421C150.119 68.1123 139.895 65.1772 129 65.0078ZM129 97L129 102.019C135.426 102.262 141.254 104.837 145.664 108.922L157.586 97L129 97ZM129 104.021L129 125.586L144.249 110.337C140.203 106.613 134.874 104.261 129 104.021ZM129 130.415L129 151.979C134.874 151.739 140.203 149.387 144.249 145.663L129 130.415ZM129 153.981L129 159L157.586 159L145.664 147.079C141.254 151.163 135.426 153.738 129 153.981ZM129 161L129 190.992C139.895 190.823 150.119 187.888 159 182.858L159 161L129 161ZM129 193L129 223L159 223L159 193L129 193ZM129 225L129 228.995C138.445 228.903 147.581 227.515 156.237 225L129 225ZM127 228.995L127 225L99.7635 225C108.419 227.515 117.555 228.903 127 228.995ZM127 159L127 153.981C120.574 153.738 114.746 151.163 110.336 147.079L98.4144 159L127 159ZM127 151.979L127 130.415L111.751 145.663C115.797 149.387 121.126 151.739 127 151.979ZM127 125.586L127 104.021C121.126 104.261 115.797 106.613 111.751 110.337L127 125.586ZM127 102.019L127 97L98.4141 97L110.336 108.922C114.746 104.837 120.574 102.262 127 102.019ZM127 31L127 27.0049C117.555 27.0967 108.419 28.4849 99.7635 31L127 31ZM161 33L161 63L191 63L191 49.0522C182.477 42.2417 172.827 36.7827 162.374 33L161 33ZM161 65L161 71.9883C165.451 74.6162 169.562 77.7598 173.25 81.3364L189.586 65L161 65ZM161 74.3242L161 93.5859L171.835 82.751C168.549 79.5664 164.916 76.7368 161 74.3242ZM161 97L161 127L190.992 127C190.823 116.105 187.888 105.881 182.858 97L161 97ZM161 129L161 159L182.858 159C187.888 150.119 190.823 139.895 190.992 129L161 129ZM161 162.415L161 181.676C164.916 179.263 168.549 176.434 171.835 173.25L161 162.415ZM161 184.012L161 191L189.586 191L173.249 174.664C169.562 178.24 165.451 181.384 161 184.012ZM161 193L161 223L162.374 223C172.827 219.217 182.477 213.758 191 206.948L191 193L161 193ZM159 191L159 185.146C154.337 187.681 149.328 189.662 144.063 191L159 191ZM159 157.586L159 129L153.981 129C153.738 135.426 151.163 141.254 147.078 145.664L159 157.586ZM159 127L159 98.4146L147.078 110.336C151.163 114.746 153.738 120.574 153.981 127L159 127ZM159 70.8545L159 65L144.063 65C149.328 66.3384 154.337 68.3193 159 70.8545ZM193 33L193 48.0957C195.472 50.1089 197.848 52.2344 200.122 54.4644L221.586 33L193 33ZM193 50.6924L193 61.5859L198.707 55.8789C196.872 54.0791 194.968 52.3486 193 50.6924ZM193 65L193 95L223 95L223 93.6265C219.217 83.1733 213.758 73.5229 206.948 65L193 65ZM193 97L193 127L223 127L223 97L193 97ZM193 129L193 159L223 159L223 129L193 129ZM193 161L193 191L206.948 191C213.758 182.477 219.217 172.827 223 162.374L223 161L193 161ZM193 194.415L193 205.308C194.968 203.651 196.872 201.921 198.707 200.122L193 194.415ZM193 207.904L193 223L221.586 223L200.121 201.536C197.848 203.766 195.472 205.891 193 207.904ZM191 223L191 209.492C183.959 214.944 176.192 219.503 167.869 223L191 223ZM191 189.586L191 161L184.012 161C181.384 165.451 178.24 169.562 174.664 173.25L191 189.586ZM191 159L191 144.063C189.662 149.328 187.681 154.336 185.146 159L191 159ZM191 111.937L191 97L185.146 97C187.681 101.664 189.662 106.672 191 111.937ZM191 95L191 66.4146L174.664 82.7505C178.24 86.4385 181.384 90.5488 184.012 95L191 95ZM191 46.5078L191 33L167.869 33C176.192 36.4971 183.959 41.0562 191 46.5078ZM65 33L65 46.5078C72.0412 41.0562 79.8082 36.4971 88.1313 33L65 33ZM65 66.4146L65 95L71.9881 95C74.6161 90.5488 77.7595 86.4385 81.3363 82.7505L65 66.4146ZM65 97L65 111.937C66.3383 106.672 68.3193 101.664 70.8545 97L65 97ZM65 144.063L65 159L70.8545 159C68.3193 154.336 66.3383 149.328 65 144.063ZM65 161L65 189.586L81.3364 173.25C77.7596 169.562 74.6161 165.451 71.9881 161L65 161ZM65 209.492L65 223L88.1313 223C79.8082 219.503 72.0412 214.944 65 209.492ZM63 223L63 207.904C60.5284 205.891 58.152 203.766 55.8786 201.536L34.4144 223L63 223ZM63 205.308L63 194.415L57.2929 200.122C59.1283 201.921 61.0321 203.651 63 205.308ZM63 191L63 161L33 161L33 162.374C36.7829 172.827 42.2418 182.477 49.0522 191L63 191ZM63 159L63 129L33 129L33 159L63 159ZM63 127L63 97L33 97L33 127L63 127ZM63 95L63 65L49.0522 65C42.2418 73.5229 36.7829 83.1733 33 93.6265L33 95L63 95ZM63 61.5859L63 50.6924C61.032 52.3486 59.1282 54.0791 57.2927 55.8789L63 61.5859ZM63 48.0957L63 33L34.4141 33L55.8784 54.4644C58.1519 52.2344 60.5284 50.1089 63 48.0957ZM225 99.7637L225 127L228.995 127C228.904 117.555 227.515 108.419 225 99.7637ZM225 129L225 156.236C227.515 147.581 228.904 138.445 228.995 129L225 129ZM223 221.586L223 193L207.904 193C205.891 195.472 203.766 197.848 201.536 200.122L223 221.586ZM223 191L223 167.869C219.503 176.192 214.944 183.959 209.492 191L223 191ZM223 88.1313L223 65L209.492 65C214.944 72.041 219.503 79.8081 223 88.1313ZM223 63L223 34.4146L201.536 55.8784C203.766 58.1519 205.891 60.5283 207.904 63L223 63ZM33 34.4146L33 63L48.0959 63C50.1089 60.5283 52.2343 58.1519 54.4642 55.8784L33 34.4146ZM33 65L33 88.1313C36.4972 79.8081 41.0562 72.041 46.5076 65L33 65ZM33 167.869L33 191L46.5076 191C41.0562 183.959 36.4972 176.192 33 167.869ZM33 193L33 221.586L54.4644 200.122C52.2343 197.848 50.1089 195.472 48.0959 193L33 193ZM31 156.236L31 129L27.0049 129C27.0965 138.445 28.4846 147.581 31 156.236ZM31 127L31 99.7637C28.4846 108.419 27.0965 117.555 27.0049 127L31 127ZM130.414 129L145.663 144.249C149.387 140.203 151.739 134.874 151.98 129L130.414 129ZM162.414 161L173.249 171.835C176.434 168.549 179.263 164.917 181.676 161L162.414 161ZM194.414 193L200.121 198.707C201.921 196.872 203.651 194.968 205.308 193L194.414 193ZM125.586 127L110.337 111.751C106.613 115.797 104.261 121.126 104.02 127L125.586 127ZM93.5856 95L82.7507 84.165C79.5663 87.4517 76.7368 91.0835 74.324 95L93.5856 95ZM61.5856 63L55.8785 57.293C54.0789 59.1284 52.3488 61.0322 50.6924 63L61.5856 63ZM200.121 57.293L194.414 63L205.308 63C203.651 61.0322 201.921 59.1284 200.121 57.293ZM173.249 84.165L162.414 95L181.676 95C179.263 91.0835 176.434 87.4517 173.249 84.165ZM145.663 111.751L130.414 127L151.98 127C151.739 121.126 149.387 115.797 145.663 111.751ZM55.8787 198.707L61.5859 193L50.6924 193C52.3488 194.968 54.079 196.872 55.8787 198.707ZM82.7508 171.835L93.5859 161L74.324 161C76.7369 164.917 79.5664 168.549 82.7508 171.835ZM110.337 144.249L125.586 129L104.02 129C104.261 134.874 106.613 140.203 110.337 144.249Z" clip-rule="evenodd" fill="#FF0000" fill-opacity="1.000000" fill-rule="evenodd" mask="url(#mask_2_18556)"/>
				<path id="Combined Shape" d="" fill="#C7C7C7" fill-opacity="0.000000" fill-rule="nonzero"/>
			</g>
		</g>
		<path id="Vector" d="M19.67 7.87C19.48 7.14 18.94 6.56 18.26 6.36C17 6 11.99 6 11.99 6C11.99 6 6.99 6 5.73 6.35C5.06 6.55 4.51 7.14 4.32 7.87C4 9.21 4 12 4 12C4 12 4 14.79 4.32 16.12C4.51 16.85 5.05 17.43 5.73 17.63C7 18 12 18 12 18C12 18 17 18 18.26 17.64C18.94 17.44 19.48 16.87 19.67 16.13C19.99 14.79 19.99 12.01 19.99 12.01C19.99 12.01 20.01 9.21 19.67 7.87ZM10.4 14.56L10.4 9.43L14.56 12L10.4 14.56Z" fill="#000000" fill-opacity="1.000000" fill-rule="nonzero"/>
	</g>
</svg>
